<?xml version="1.0" encoding="UTF-8" standalone="no"?>
<!-- Created with Inkscape (http://www.inkscape.org/) -->

<svg
   version="1.1"
   id="svg1"
   width="32"
   height="32"
   viewBox="0 0 32 32"
   xmlns="http://www.w3.org/2000/svg"
   xmlns:svg="http://www.w3.org/2000/svg">
  <defs
     id="defs1">
    <clipPath
       clipPathUnits="userSpaceOnUse"
       id="clipPath3">
      <path
         d="M 0,24 H 24 V 0 H 0 Z"
         transform="translate(-11.5,-22.500001)"
         id="path3" />
    </clipPath>
    <clipPath
       clipPathUnits="userSpaceOnUse"
       id="clipPath5">
      <path
         d="M 0,24 H 24 V 0 H 0 Z"
         transform="translate(-8.5,-14.000001)"
         id="path5" />
    </clipPath>
    <clipPath
       clipPathUnits="userSpaceOnUse"
       id="clipPath7">
      <path
         d="M 0,24 H 24 V 0 H 0 Z"
         transform="translate(-12,-5.4999999)"
         id="path7" />
    </clipPath>
  </defs>
  <g
     id="g1">
    <g
       id="group-MC0">
      <path
         id="path2"
         d="m 0,0 c 6.075,0 11,-4.925 11,-11 0,-6.075 -4.925,-11 -11,-11 -6.075,0 -11,4.925 -11,11 0,6.075 4.925,11 11,11 z"
         style="fill:none;stroke:#000000;stroke-width:1;stroke-linecap:round;stroke-linejoin:round;stroke-miterlimit:10;stroke-dasharray:none;stroke-opacity:1"
         transform="matrix(1.3333333,0,0,-1.3333333,15.333333,2)"
         clip-path="url(#clipPath3)" />
      <path
         id="path4"
         d="M 0,0 C 0,1.656 1.343,3 3,3 4.656,3 6,1.656 6,0 6,-1.658 4.656,-3 3,-3 v -3"
         style="fill:none;stroke:#000000;stroke-width:1;stroke-linecap:round;stroke-linejoin:round;stroke-miterlimit:10;stroke-dasharray:none;stroke-opacity:1"
         transform="matrix(1.3333333,0,0,-1.3333333,11.333333,13.333333)"
         clip-path="url(#clipPath5)" />
      <path
         id="path6"
         d="M 0,0 C 0,-0.276 -0.224,-0.5 -0.5,-0.5 -0.776,-0.5 -1,-0.276 -1,0 -1,0.276 -0.776,0.5 -0.5,0.5 -0.224,0.5 0,0.276 0,0 Z"
         style="fill:none;stroke:#000000;stroke-width:1;stroke-linecap:butt;stroke-linejoin:round;stroke-miterlimit:10;stroke-dasharray:none;stroke-opacity:1"
         transform="matrix(1.3333333,0,0,-1.3333333,16,24.666667)"
         clip-path="url(#clipPath7)" />
    </g>
  </g>
</svg>
