<?xml version="1.0" encoding="UTF-8" standalone="no"?>
<!-- Created with Inkscape (http://www.inkscape.org/) -->

<svg
   version="1.1"
   id="svg1"
   width="32"
   height="32"
   viewBox="0 0 32 32"
   xmlns="http://www.w3.org/2000/svg"
   xmlns:svg="http://www.w3.org/2000/svg">
  <defs
     id="defs1">
    <clipPath
       clipPathUnits="userSpaceOnUse"
       id="clipPath3">
      <path
         d="M 0,24 H 24 V 0 H 0 Z"
         transform="translate(-7.2940002,-2.3250001)"
         id="path3" />
    </clipPath>
    <clipPath
       clipPathUnits="userSpaceOnUse"
       id="clipPath5">
      <path
         d="M 0,24 H 24 V 0 H 0 Z"
         transform="translate(-22.191001,-17.216)"
         id="path5" />
    </clipPath>
    <clipPath
       clipPathUnits="userSpaceOnUse"
       id="clipPath7">
      <path
         d="M 0,24 H 24 V 0 H 0 Z"
         transform="translate(-20.764,-15.789)"
         id="path7" />
    </clipPath>
    <clipPath
       clipPathUnits="userSpaceOnUse"
       id="clipPath9">
      <path
         d="M 0,24 H 24 V 0 H 0 Z"
         transform="translate(-7.5459999,-2.5760003)"
         id="path9" />
    </clipPath>
  </defs>
  <g
     id="g1">
    <g
       id="group-MC0">
      <path
         id="path2"
         d="m 0,0 -6.466,-1.517 1.517,6.465 15.6,15.602 c 0.781,0.781 2.049,0.781 2.829,0 l 2.122,-2.122 c 0.78,-0.781 0.78,-2.047 0,-2.829 z"
         style="fill:none;stroke:#000000;stroke-width:1;stroke-linecap:round;stroke-linejoin:round;stroke-miterlimit:10;stroke-dasharray:none;stroke-opacity:1"
         transform="matrix(1.3333333,0,0,-1.3333333,9.7253333,28.9)"
         clip-path="url(#clipPath3)" />
      <path
         id="path4"
         d="M 0,0 -4.953,4.952"
         style="fill:none;stroke:#000000;stroke-width:1;stroke-linecap:round;stroke-linejoin:round;stroke-miterlimit:10;stroke-dasharray:none;stroke-opacity:1"
         transform="matrix(1.3333333,0,0,-1.3333333,29.588,9.0453333)"
         clip-path="url(#clipPath5)" />
      <path
         id="path6"
         d="M 0,0 -4.94,4.965"
         style="fill:none;stroke:#000000;stroke-width:1;stroke-linecap:round;stroke-linejoin:round;stroke-miterlimit:10;stroke-dasharray:none;stroke-opacity:1"
         transform="matrix(1.3333333,0,0,-1.3333333,27.685333,10.948)"
         clip-path="url(#clipPath7)" />
      <path
         id="path8"
         d="M 0,0 -4.95,4.95"
         style="fill:none;stroke:#000000;stroke-width:1;stroke-linecap:round;stroke-linejoin:round;stroke-miterlimit:10;stroke-dasharray:none;stroke-opacity:1"
         transform="matrix(1.3333333,0,0,-1.3333333,10.061333,28.565333)"
         clip-path="url(#clipPath9)" />
    </g>
  </g>
</svg>
