<?xml version="1.0" encoding="UTF-8" standalone="no"?>
<!-- Created with Inkscape (http://www.inkscape.org/) -->

<svg
   version="1.1"
   id="svg1"
   width="32"
   height="32"
   viewBox="0 0 32 32"
   xmlns="http://www.w3.org/2000/svg"
   xmlns:svg="http://www.w3.org/2000/svg">
  <defs
     id="defs1">
    <clipPath
       clipPathUnits="userSpaceOnUse"
       id="clipPath3">
      <path
         d="M 0,24 H 24 V 0 H 0 Z"
         transform="translate(-7.5000002,-3.0000001)"
         id="path3" />
    </clipPath>
    <clipPath
       clipPathUnits="userSpaceOnUse"
       id="clipPath5">
      <path
         d="M 0,24 H 24 V 0 H 0 Z"
         transform="translate(-15,-19.5)"
         id="path5" />
    </clipPath>
    <clipPath
       clipPathUnits="userSpaceOnUse"
       id="clipPath7">
      <path
         d="M 0,24 H 24 V 0 H 0 Z"
         transform="translate(-17.25,-17.25)"
         id="path7" />
    </clipPath>
    <clipPath
       clipPathUnits="userSpaceOnUse"
       id="clipPath9">
      <path
         d="M 0,24 H 24 V 0 H 0 Z"
         transform="translate(-3.0000001,-7.5000002)"
         id="path9" />
    </clipPath>
    <clipPath
       clipPathUnits="userSpaceOnUse"
       id="clipPath11">
      <path
         d="M 0,24 H 24 V 0 H 0 Z"
         transform="translate(-2.0000001,-3.9999998)"
         id="path11" />
    </clipPath>
    <clipPath
       clipPathUnits="userSpaceOnUse"
       id="clipPath13">
      <path
         d="M 0,24 H 24 V 0 H 0 Z"
         transform="translate(-16.5,-21.000001)"
         id="path13" />
    </clipPath>
  </defs>
  <g
     id="g1">
    <g
       id="group-MC0">
      <path
         id="path2"
         d="m 0,0 -6.5,-2 2,6.5 12,12 L 12,12 Z"
         style="fill:none;stroke:#000000;stroke-width:1;stroke-linecap:round;stroke-linejoin:round;stroke-miterlimit:10;stroke-dasharray:none;stroke-opacity:1"
         transform="matrix(1.3333333,0,0,-1.3333333,10,28)"
         clip-path="url(#clipPath3)" />
      <path
         id="path4"
         d="m 0,0 3.086,3.085 c 0.778,0.778 2.05,0.778 2.828,0 L 7.586,1.414 c 0.778,-0.779 0.778,-2.051 0,-2.829 L 4.5,-4.5"
         style="fill:none;stroke:#000000;stroke-width:1;stroke-linecap:round;stroke-linejoin:round;stroke-miterlimit:10;stroke-dasharray:none;stroke-opacity:1"
         transform="matrix(1.3333333,0,0,-1.3333333,20,6)"
         clip-path="url(#clipPath5)" />
      <path
         id="path6"
         d="M 0,0 -10.75,-10.75"
         style="fill:none;stroke:#000000;stroke-width:1;stroke-linecap:round;stroke-linejoin:round;stroke-miterlimit:10;stroke-dasharray:none;stroke-opacity:1"
         transform="matrix(1.3333333,0,0,-1.3333333,23,9)"
         clip-path="url(#clipPath7)" />
      <path
         id="path8"
         d="m 0,0 1,-1 h 2.5 v -2.5 l 1,-1"
         style="fill:none;stroke:#000000;stroke-width:1;stroke-linecap:round;stroke-linejoin:round;stroke-miterlimit:10;stroke-dasharray:none;stroke-opacity:1"
         transform="matrix(1.3333333,0,0,-1.3333333,4,22)"
         clip-path="url(#clipPath9)" />
      <path
         id="path10"
         d="M 0,0 2,-2"
         style="fill:none;stroke:#000000;stroke-width:1;stroke-linecap:round;stroke-linejoin:round;stroke-miterlimit:10;stroke-dasharray:none;stroke-opacity:1"
         transform="matrix(1.3333333,0,0,-1.3333333,2.6666667,26.666667)"
         clip-path="url(#clipPath11)" />
      <path
         id="path12"
         d="M 0,0 4.5,-4.5"
         style="fill:none;stroke:#000000;stroke-width:1;stroke-linecap:round;stroke-linejoin:round;stroke-miterlimit:10;stroke-dasharray:none;stroke-opacity:1"
         transform="matrix(1.3333333,0,0,-1.3333333,22,4)"
         clip-path="url(#clipPath13)" />
    </g>
  </g>
</svg>
