<?xml version="1.0" encoding="UTF-8" standalone="no"?>
<!-- Created with Inkscape (http://www.inkscape.org/) -->

<svg
   version="1.1"
   id="svg1"
   width="32"
   height="32"
   viewBox="0 0 32 32"
   xmlns="http://www.w3.org/2000/svg"
   xmlns:svg="http://www.w3.org/2000/svg">
  <defs
     id="defs1">
    <clipPath
       clipPathUnits="userSpaceOnUse"
       id="clipPath3">
      <path
         d="M 0,24 H 24 V 0 H 0 Z"
         transform="translate(-10,-9.0000002)"
         id="path3" />
    </clipPath>
    <clipPath
       clipPathUnits="userSpaceOnUse"
       id="clipPath5">
      <path
         d="M 0,24 H 24 V 0 H 0 Z"
         transform="translate(-3.8250001,-3.9129998)"
         id="path5" />
    </clipPath>
  </defs>
  <g
     id="g1">
    <g
       id="group-MC0">
      <path
         id="path2"
         d="m 0,0 c 0,0 -1.5,0.5 -1.5,3 -0.826,0 -0.826,2 0,2 0,0.335 -1.5,4 1,3.5 0.5,2 6,2 6.5,0 C 6.347,7.112 5.5,5.246 5.5,5 6.326,5 6.326,3 5.5,3 5.5,0.5 4,0 4,0 V -2.5 C 6.477,-3.429 8.93,-4.197 10.186,-5.075 12.234,-2.999 13.5,-0.147 13.5,3 13.5,9.352 8.352,14.5 2,14.5 -4.352,14.5 -9.5,9.352 -9.5,3 c 0,-3.153 1.27,-6.009 3.325,-8.087 1.33,0.92 3.952,1.746 6.175,2.587 z"
         style="fill:none;stroke:#000000;stroke-width:1;stroke-linecap:butt;stroke-linejoin:round;stroke-miterlimit:10;stroke-dasharray:none;stroke-opacity:1"
         transform="matrix(1.3333333,0,0,-1.3333333,13.333333,20)"
         clip-path="url(#clipPath3)" />
      <path
         id="path4"
         d="m 0,0 c 2.085,-2.107 4.977,-3.413 8.175,-3.413 3.203,0 6.1,1.311 8.186,3.425"
         style="fill:none;stroke:#000000;stroke-width:1;stroke-linecap:butt;stroke-linejoin:round;stroke-miterlimit:10;stroke-dasharray:none;stroke-opacity:1"
         transform="matrix(1.3333333,0,0,-1.3333333,5.1,26.782667)"
         clip-path="url(#clipPath5)" />
    </g>
  </g>
</svg>
