<?xml version="1.0" encoding="UTF-8" standalone="no"?>
<!-- Created with Inkscape (http://www.inkscape.org/) -->

<svg
   version="1.1"
   id="svg1"
   width="32"
   height="32"
   viewBox="0 0 32 32"
   xmlns="http://www.w3.org/2000/svg"
   xmlns:svg="http://www.w3.org/2000/svg">
  <defs
     id="defs1">
    <clipPath
       clipPathUnits="userSpaceOnUse"
       id="clipPath3">
      <path
         d="M 0,24 H 24 V 0 H 0 Z"
         transform="translate(-16,-1.4990003)"
         id="path3" />
    </clipPath>
    <clipPath
       clipPathUnits="userSpaceOnUse"
       id="clipPath6">
      <path
         d="M 0,24 H 24 V 0 H 0 Z"
         transform="translate(-13.5,-3.9990001)"
         id="path6" />
    </clipPath>
    <clipPath
       clipPathUnits="userSpaceOnUse"
       id="clipPath8">
      <path
         d="M 0,24 H 24 V 0 H 0 Z"
         transform="translate(-9.7500002,-0.50000026)"
         id="path8" />
    </clipPath>
    <clipPath
       clipPathUnits="userSpaceOnUse"
       id="clipPath10">
      <path
         d="M 0,24 H 24 V 0 H 0 Z"
         transform="translate(-21.500001,-23.500001)"
         id="path10" />
    </clipPath>
    <clipPath
       clipPathUnits="userSpaceOnUse"
       id="clipPath12">
      <path
         d="M 0,24 H 24 V 0 H 0 Z"
         transform="translate(-4.5000001,-21.500001)"
         id="path12" />
    </clipPath>
  </defs>
  <g
     id="g1">
    <g
       id="group-MC0">
      <path
         id="path2"
         d="m 0,0 -3.5,-1 1,3.5 7.502,7.502 2.5,-2.5 z"
         style="fill:none;stroke:#000000;stroke-width:1;stroke-linecap:round;stroke-linejoin:round;stroke-miterlimit:10;stroke-dasharray:none;stroke-opacity:1"
         transform="matrix(1.3333333,0,0,-1.3333333,21.333333,30.001333)"
         clip-path="url(#clipPath3)" />
      <path
         id="path4"
         d="M 0,0 2.5,-2.5"
         style="fill:none;stroke:#000000;stroke-width:1;stroke-linecap:butt;stroke-linejoin:round;stroke-miterlimit:10;stroke-dasharray:none;stroke-opacity:1"
         transform="matrix(1.3333333,0,0,-1.3333333,25.336,19.332)" />
      <path
         id="path5"
         d="M 0,0 2.5,-2.5"
         style="fill:none;stroke:#000000;stroke-width:1;stroke-linecap:round;stroke-linejoin:round;stroke-miterlimit:10;stroke-dasharray:none;stroke-opacity:1"
         transform="matrix(1.3333333,0,0,-1.3333333,18,26.668)"
         clip-path="url(#clipPath6)" />
      <path
         id="path7"
         d="m 0,0 h -5.25 c -1.104,0 -2,0.896 -2,2 v 19"
         style="fill:none;stroke:#000000;stroke-width:1;stroke-linecap:round;stroke-linejoin:round;stroke-miterlimit:10;stroke-dasharray:none;stroke-opacity:1"
         transform="matrix(1.3333333,0,0,-1.3333333,13,31.333333)"
         clip-path="url(#clipPath8)" />
      <path
         id="path9"
         d="m 0,0 h -17 c -1.104,0 -2,-0.896 -2,-2 0,-1.104 0.896,-2 2,-2 H 0 v -4.5"
         style="fill:none;stroke:#000000;stroke-width:1;stroke-linecap:round;stroke-linejoin:round;stroke-miterlimit:10;stroke-dasharray:none;stroke-opacity:1"
         transform="matrix(1.3333333,0,0,-1.3333333,28.666667,0.66666667)"
         clip-path="url(#clipPath10)" />
      <path
         id="path11"
         d="M 0,0 H 16"
         style="fill:none;stroke:#000000;stroke-width:1;stroke-linecap:round;stroke-linejoin:round;stroke-miterlimit:10;stroke-dasharray:none;stroke-opacity:1"
         transform="matrix(1.3333333,0,0,-1.3333333,6,3.3333333)"
         clip-path="url(#clipPath12)" />
    </g>
  </g>
</svg>
